<svg xmlns="http://www.w3.org/2000/svg" width="140" height="140" viewBox="0 0 140 140">
  <g id="Group_37668" data-name="Group 37668" transform="translate(2579 12568)">
    <g id="Rectangle_18829" data-name="Rectangle 18829" transform="translate(-2579 -12568)" fill="#fff" stroke="#707070" stroke-width="1" opacity="0">
      <rect width="140" height="140" stroke="none"/>
      <rect x="0.5" y="0.5" width="139" height="139" fill="none"/>
    </g>
    <g id="Group_37667" data-name="Group 37667" transform="translate(-3079.288 -12746.031)">
      <g id="Group_19797" data-name="Group 19797" transform="translate(501 180)" opacity="0.3">
        <g id="BACKGROUND" transform="translate(0 0)">
          <g id="Group_9" data-name="Group 9" transform="translate(1.642 5.044)">
            <g id="Group_8" data-name="Group 8" transform="translate(0 0)">
              <g id="Group_3" data-name="Group 3" transform="translate(0 3.067)" opacity="0.41">
                <g id="Group_2" data-name="Group 2">
                  <g id="Group_1" data-name="Group 1">
                    <path id="Path_1" data-name="Path 1" d="M28.264,122.438a41.392,41.392,0,0,1-.163-6.911A45.112,45.112,0,0,1,41.249,86.7c2.71-2.7,5.824-5.161,7.5-8.629,2.826-5.84,2.264-12.349,5.844-18.156A32.908,32.908,0,0,1,69.83,46.847c18.6-7.7,45.655,1.8,44.433,25.217,0,.084-.008.206-.01.36a8.391,8.391,0,0,0,8.587,8.589c17.491-.5,33.217,12.451,37.306,29.7,2.63,11.093-.145,23.551-7.775,31.9-5.7,6.233-13.572,9.909-21.5,12.569a134.911,134.911,0,0,1-49.537,6.34c-15.644-.777-32.29-4.475-42.966-16.167A40.555,40.555,0,0,1,28.264,122.438Z" transform="translate(-28.026 -44.223)" fill="#e1e2fe"/>
                  </g>
                </g>
              </g>
              <g id="Group_4" data-name="Group 4" transform="translate(80.078)" opacity="0.31">
                <ellipse id="Ellipse_1" data-name="Ellipse 1" cx="4.019" cy="3.936" rx="4.019" ry="3.936" transform="matrix(0.021, -1, 1, 0.021, 0, 8.036)" fill="#e1e2fe"/>
              </g>
              <g id="Group_5" data-name="Group 5" transform="translate(17.408 2.027)" opacity="0.31">
                <path id="Path_2" data-name="Path 2" d="M85.612,42.966a2.031,2.031,0,1,0,1.925-2.178A2.045,2.045,0,0,0,85.612,42.966Z" transform="translate(-85.609 -40.785)" fill="#e1e2fe"/>
              </g>
              <g id="Group_6" data-name="Group 6" transform="translate(134.246 49.621)" opacity="0.31">
                <path id="Path_3" data-name="Path 3" d="M472.088,199.658a1.345,1.345,0,1,0,1.274-1.442A1.354,1.354,0,0,0,472.088,199.658Z" transform="translate(-472.086 -198.215)" fill="#e1e2fe"/>
              </g>
              <g id="Group_7" data-name="Group 7" transform="translate(115.457 113.669)" opacity="0.31">
                <ellipse id="Ellipse_2" data-name="Ellipse 2" cx="6.327" cy="6.196" rx="6.327" ry="6.196" transform="translate(0 12.651) rotate(-88.801)" fill="#e1e2fe"/>
              </g>
            </g>
          </g>
          <g id="Group_13" data-name="Group 13">
            <g id="Group_10" data-name="Group 10">
              <path id="Path_4" data-name="Path 4" d="M23.539,72.142a7.237,7.237,0,0,1,2.547-9.774c3.346-1.983,9.956-2.2,11.9,1.214s-3.2,6.706-5.191,10.092C30.011,78.4,25.479,75.557,23.539,72.142Z" transform="translate(-22.594 -47.771)" fill="#ecf1f7" opacity="0.47"/>
              <path id="Path_5" data-name="Path 5" d="M72.388,426.541A5.293,5.293,0,0,1,64.9,425.3c-1.732-2.453-2.39-7.582.014-9.352s5.247,1.977,7.925,3.27C76.573,421.025,74.793,424.77,72.388,426.541Z" transform="translate(-51.026 -295.137)" fill="#e1e2fe" opacity="0.47"/>
              <path id="Path_6" data-name="Path 6" d="M402.994,19.492a6.668,6.668,0,0,1,9.568-.146c2.679,2.657,4.6,8.877,2,11.615s-6.943-1.278-10.547-2.282C398.984,27.278,400.389,22.229,402.994,19.492Z" transform="translate(-286.35 -17.395)" fill="#e1e2fe" opacity="0.47"/>
            </g>
            <g id="Group_12" data-name="Group 12" transform="translate(5.062 10.196)">
              <path id="Path_7" data-name="Path 7" d="M41.056,92.924a29.494,29.494,0,0,0-1.1,15.839c1.531,7.042,6.8,13.232,5.906,20.742-.54,4.507-.444,8.637-.552,13.065-.223,9.092,6.13,16.618,13.582,20.386a36.269,36.269,0,0,0,19.578,3.282A74.858,74.858,0,0,0,96.02,162.2c5.477-1.875,10.794-4.205,16.7-4.03,4.912.145,9.466,1.971,14.127,3.238,11.128,3.026,24.294,2.6,33.752-3.963,10.368-7.19,14.556-20.832,10.933-32.754-1.943-6.395-4.538-11.937-3.6-18.75.462-3.352,1.15-6.763.515-10.086a18.645,18.645,0,0,0-4.25-8.206c-5.362-6.46-12.994-10.58-20.93-13-9-2.75-19-4.249-28.355-2.825-18.182,2.765-22.139.076-41.146-2.623-12.733-1.808-24.684,8.316-30.487,18.76A31.531,31.531,0,0,0,41.056,92.924Z" transform="translate(-39.34 -63.582)" fill="#e1e2fe" opacity="0.32"/>
              <g id="Group_11" data-name="Group 11" transform="translate(7.813)" opacity="0.83">
                <path id="Path_8" data-name="Path 8" d="M67.887,95.093c2.619-3.455,6.667-5.8,8.651-9.773,2.375-4.754,1.874-10.364,4-15.22A33.023,33.023,0,0,1,96.45,53.481,21.916,21.916,0,0,1,107.3,51.168c5.653.434,10.53,3.8,14.343,7.818,5.675,5.982,9.688,14.477,16.5,19.27,3.759,2.645,8.176-.161,12.158-1.051a27.552,27.552,0,0,1,13.485.455,28.684,28.684,0,0,1,18.159,15.416c3.643,7.99,3.125,19.037-3.713,25.907-3.164,3.178-7.454,5.3-9.8,9.109-2.946,4.777-3.292,11.235-4.114,16.547a35.107,35.107,0,0,1-7.184,16.323l-.129.161a23.144,23.144,0,0,1-27.14,6.8l-20.043-8.683c-20.336-8.81-35.775-23.007-43.187-43.583-1.6-4.452-2.187-13.945-.143-18.291A12.753,12.753,0,0,1,67.887,95.093Z" transform="translate(-65.183 -51.12)" fill="#e1e2fe" opacity="0.81"/>
              </g>
            </g>
          </g>
          <circle id="Ellipse_3" data-name="Ellipse 3" cx="1.36" cy="1.36" r="1.36" transform="translate(107.918 124.244)" fill="#3e479b" opacity="0.58"/>
          <circle id="Ellipse_4" data-name="Ellipse 4" cx="0.68" cy="0.68" r="0.68" transform="translate(74.17 5.431)" fill="#3e479b" opacity="0.58"/>
          <circle id="Ellipse_5" data-name="Ellipse 5" cx="1.36" cy="1.36" r="1.36" transform="translate(31.508 127.511)" fill="#3e479b" opacity="0.58"/>
          <circle id="Ellipse_6" data-name="Ellipse 6" cx="1.058" cy="1.058" r="1.058" transform="translate(113.761 133.948)" fill="#ef929c" opacity="0.58"/>
          <circle id="Ellipse_7" data-name="Ellipse 7" cx="0.453" cy="0.453" r="0.453" transform="translate(10.268 6.618)" fill="#3e479b" opacity="0.58"/>
          <circle id="Ellipse_8" data-name="Ellipse 8" cx="1.634" cy="1.634" r="1.634" transform="translate(131.313 19.86) rotate(-63.039)" fill="#ef929c" opacity="0.58"/>
          <path id="Path_9" data-name="Path 9" d="M72.222,25.016a.641.641,0,1,1-.493-.76A.641.641,0,0,1,72.222,25.016Z" transform="translate(-56.335 -22.172)" fill="#ef929c" opacity="0.58"/>
          <path id="Path_10" data-name="Path 10" d="M286.848,18.169a.641.641,0,1,1-.493-.76A.641.641,0,0,1,286.848,18.169Z" transform="translate(-206.076 -17.395)" fill="#ef929c" opacity="0.58"/>
          <path id="Path_11" data-name="Path 11" d="M436.158,84.982a.545.545,0,1,1-.419-.646A.545.545,0,0,1,436.158,84.982Z" transform="translate(-310.38 -64.09)" fill="#3e479b" opacity="0.58"/>
          <path id="Path_12" data-name="Path 12" d="M38.615,395.389a.545.545,0,1,1-.419-.646A.544.544,0,0,1,38.615,395.389Z" transform="translate(-33.02 -280.657)" fill="#3e479b" opacity="0.58"/>
        </g>
        <g id="OBJECTS" transform="translate(12.988 7.955)">
          <g id="Group_28" data-name="Group 28" transform="translate(4.483 18.121)">
            <g id="Group_18" data-name="Group 18" transform="translate(23.119)" opacity="0.66">
              <g id="Group_17" data-name="Group 17">
                <g id="Group_14" data-name="Group 14" transform="translate(47.764)">
                  <path id="Path_13" data-name="Path 13" d="M331.864,135.313H329.5a1.8,1.8,0,0,1-1.8-1.8v-2.655a1.2,1.2,0,0,0-.783-1.119c-.279-.1-.556-.217-.825-.342a1.208,1.208,0,0,0-1.357.232l-1.877,1.877a1.8,1.8,0,0,1-2.541,0l-1.669-1.668a1.8,1.8,0,0,1,0-2.541l1.877-1.877a1.207,1.207,0,0,0,.232-1.357c-.125-.271-.24-.549-.342-.825a1.2,1.2,0,0,0-1.119-.783H316.65a1.8,1.8,0,0,1-1.8-1.8V118.3a1.8,1.8,0,0,1,1.8-1.8H319.3a1.2,1.2,0,0,0,1.119-.783c.1-.277.217-.555.342-.825a1.207,1.207,0,0,0-.232-1.357l-1.877-1.877a1.8,1.8,0,0,1,0-2.541l1.669-1.669a1.8,1.8,0,0,1,2.541,0l1.877,1.877a1.207,1.207,0,0,0,1.357.232c.271-.125.549-.24.825-.342a1.2,1.2,0,0,0,.783-1.119v-2.654a1.8,1.8,0,0,1,1.8-1.8h2.36a1.8,1.8,0,0,1,1.8,1.8V108.1a1.2,1.2,0,0,0,.783,1.119c.276.1.554.216.825.342a1.207,1.207,0,0,0,1.357-.232l1.877-1.877a1.8,1.8,0,0,1,2.541,0l1.669,1.669a1.8,1.8,0,0,1,0,2.541l-1.877,1.877a1.206,1.206,0,0,0-.232,1.357c.125.271.24.548.342.825a1.2,1.2,0,0,0,1.119.783h2.654a1.8,1.8,0,0,1,1.8,1.8v2.36a1.8,1.8,0,0,1-1.8,1.8h-2.654a1.2,1.2,0,0,0-1.119.783c-.1.277-.216.554-.341.825a1.206,1.206,0,0,0,.232,1.357l1.877,1.877a1.8,1.8,0,0,1,0,2.541l-1.669,1.668a1.8,1.8,0,0,1-2.541,0l-1.877-1.877a1.208,1.208,0,0,0-1.357-.232c-.269.125-.546.24-.825.342a1.2,1.2,0,0,0-.783,1.119v2.655A1.8,1.8,0,0,1,331.864,135.313Zm-6.277-6.63a1.819,1.819,0,0,1,.766.169c.254.117.516.226.78.323a1.8,1.8,0,0,1,1.179,1.687v2.655a1.193,1.193,0,0,0,1.192,1.192h2.36a1.193,1.193,0,0,0,1.192-1.192v-2.655a1.8,1.8,0,0,1,1.18-1.687c.263-.1.525-.205.779-.323a1.814,1.814,0,0,1,2.039.353l1.877,1.877a1.194,1.194,0,0,0,1.686,0l1.669-1.668a1.194,1.194,0,0,0,0-1.686l-1.877-1.877a1.813,1.813,0,0,1-.353-2.039c.118-.255.227-.518.323-.779a1.8,1.8,0,0,1,1.687-1.18h2.654a1.194,1.194,0,0,0,1.192-1.192V118.3a1.194,1.194,0,0,0-1.192-1.192h-2.654a1.8,1.8,0,0,1-1.687-1.179c-.1-.262-.2-.524-.323-.779a1.812,1.812,0,0,1,.353-2.039l1.877-1.877a1.194,1.194,0,0,0,0-1.686l-1.669-1.669a1.194,1.194,0,0,0-1.686,0l-1.877,1.877a1.814,1.814,0,0,1-2.039.353c-.256-.118-.518-.227-.779-.323a1.8,1.8,0,0,1-1.18-1.687v-2.654a1.193,1.193,0,0,0-1.192-1.192H329.5a1.193,1.193,0,0,0-1.192,1.192V108.1a1.8,1.8,0,0,1-1.179,1.687c-.261.1-.524.2-.78.323a1.813,1.813,0,0,1-2.039-.353l-1.877-1.877a1.194,1.194,0,0,0-1.686,0l-1.668,1.669a1.194,1.194,0,0,0,0,1.686l1.877,1.877a1.814,1.814,0,0,1,.353,2.039c-.118.255-.226.517-.323.779a1.8,1.8,0,0,1-1.687,1.179H316.65a1.194,1.194,0,0,0-1.192,1.192v2.36a1.194,1.194,0,0,0,1.192,1.192H319.3a1.8,1.8,0,0,1,1.687,1.18c.1.261.2.523.323.779a1.814,1.814,0,0,1-.354,2.038l-1.877,1.877a1.194,1.194,0,0,0,0,1.686l1.668,1.668a1.194,1.194,0,0,0,1.686,0l1.877-1.877A1.8,1.8,0,0,1,325.587,128.683Zm5.1-.9a8.3,8.3,0,1,1,8.3-8.3A8.308,8.308,0,0,1,330.685,127.78Zm0-15.992a7.694,7.694,0,1,0,7.694,7.694A7.7,7.7,0,0,0,330.685,111.787Z" transform="translate(-314.853 -103.65)" fill="#fff"/>
                </g>
                <g id="Group_15" data-name="Group 15" transform="translate(27.595 60.543)" opacity="0.84">
                  <path id="Path_14" data-name="Path 14" d="M280.925,318.172h-2.944a1.658,1.658,0,0,1-1.556-1.088q-.166-.454-.369-.889a1.667,1.667,0,0,1,.325-1.883l2.082-2.082a1.657,1.657,0,0,0,0-2.344l-1.85-1.85a1.657,1.657,0,0,0-2.344,0l-2.082,2.082a1.667,1.667,0,0,1-1.883.325q-.436-.2-.89-.369a1.658,1.658,0,0,1-1.088-1.556v-2.944a1.657,1.657,0,0,0-1.657-1.657h-2.617a1.657,1.657,0,0,0-1.657,1.657v2.944a1.658,1.658,0,0,1-1.088,1.556q-.454.166-.889.369a1.667,1.667,0,0,1-1.883-.325l-2.082-2.082a1.657,1.657,0,0,0-2.344,0l-1.85,1.85a1.657,1.657,0,0,0,0,2.344l2.082,2.082a1.667,1.667,0,0,1,.325,1.883q-.2.435-.368.889a1.657,1.657,0,0,1-1.556,1.088H249.8a1.657,1.657,0,0,0-1.657,1.657v2.617A1.657,1.657,0,0,0,249.8,324.1h2.944a1.658,1.658,0,0,1,1.556,1.088q.166.453.368.889a1.667,1.667,0,0,1-.325,1.883l-2.082,2.082a1.657,1.657,0,0,0,0,2.344l1.85,1.85a1.657,1.657,0,0,0,2.344,0l2.082-2.082a1.668,1.668,0,0,1,1.883-.325q.435.2.889.369a1.658,1.658,0,0,1,1.088,1.556V336.7a1.657,1.657,0,0,0,1.657,1.657h2.617a1.657,1.657,0,0,0,1.657-1.657v-2.944a1.658,1.658,0,0,1,1.088-1.556q.454-.166.89-.369a1.667,1.667,0,0,1,1.883.325l2.082,2.082a1.657,1.657,0,0,0,2.344,0l1.85-1.85a1.657,1.657,0,0,0,0-2.344l-2.082-2.082a1.667,1.667,0,0,1-.325-1.883q.2-.435.369-.889a1.658,1.658,0,0,1,1.556-1.088h2.944a1.657,1.657,0,0,0,1.657-1.657V319.83A1.657,1.657,0,0,0,280.925,318.172ZM265.36,330.006a8.868,8.868,0,1,1,8.868-8.868A8.868,8.868,0,0,1,265.36,330.006Z" transform="translate(-248.138 -303.916)" fill="#fff"/>
                </g>
                <g id="Group_16" data-name="Group 16" transform="translate(0 65.737)">
                  <path id="Path_15" data-name="Path 15" d="M171.2,347.79h-1.982a1.559,1.559,0,0,1-1.558-1.558V344a.958.958,0,0,0-.626-.9c-.234-.085-.468-.182-.7-.288a.967.967,0,0,0-1.086.186l-1.577,1.577a1.557,1.557,0,0,1-2.2,0l-1.4-1.4a1.557,1.557,0,0,1,0-2.2l1.577-1.577a.965.965,0,0,0,.186-1.086c-.105-.227-.2-.462-.289-.7a.957.957,0,0,0-.895-.626h-2.23a1.56,1.56,0,0,1-1.558-1.558v-1.982a1.559,1.559,0,0,1,1.558-1.557h2.23a.957.957,0,0,0,.895-.626c.087-.237.184-.471.289-.7a.966.966,0,0,0-.186-1.086l-1.577-1.577a1.557,1.557,0,0,1,0-2.2l1.4-1.4a1.56,1.56,0,0,1,2.2,0l1.577,1.577a.965.965,0,0,0,1.086.185c.225-.1.46-.2.7-.288a.958.958,0,0,0,.626-.895v-2.23a1.559,1.559,0,0,1,1.558-1.558H171.2a1.559,1.559,0,0,1,1.558,1.558v2.23a.958.958,0,0,0,.626.895c.237.087.471.184.7.288a.966.966,0,0,0,1.086-.185l1.577-1.577a1.56,1.56,0,0,1,2.2,0l1.4,1.4a1.557,1.557,0,0,1,0,2.2l-1.577,1.577a.966.966,0,0,0-.186,1.086c.1.225.2.46.289.7a.958.958,0,0,0,.895.626H182a1.559,1.559,0,0,1,1.558,1.557v1.982A1.56,1.56,0,0,1,182,336.991h-2.23a.957.957,0,0,0-.895.626c-.086.235-.184.47-.289.7a.965.965,0,0,0,.186,1.086l1.577,1.577a1.558,1.558,0,0,1,0,2.2l-1.4,1.4a1.557,1.557,0,0,1-2.2,0L175.164,343a.967.967,0,0,0-1.086-.186c-.229.106-.463.2-.7.289a.957.957,0,0,0-.626.895v2.23A1.559,1.559,0,0,1,171.2,347.79Zm-5.272-5.666a1.582,1.582,0,0,1,.664.146c.213.1.432.19.651.269A1.565,1.565,0,0,1,168.262,344v2.23a.954.954,0,0,0,.953.953H171.2a.954.954,0,0,0,.953-.953V344a1.565,1.565,0,0,1,1.023-1.463c.218-.079.437-.17.651-.269a1.574,1.574,0,0,1,1.767.307l1.577,1.577a.975.975,0,0,0,1.348,0l1.4-1.4a.953.953,0,0,0,0-1.348l-1.577-1.577a1.572,1.572,0,0,1-.307-1.767c.1-.212.189-.431.269-.651a1.564,1.564,0,0,1,1.463-1.023H182a.954.954,0,0,0,.953-.953v-1.982A.954.954,0,0,0,182,332.5h-2.23a1.565,1.565,0,0,1-1.463-1.022c-.081-.221-.171-.44-.269-.651a1.572,1.572,0,0,1,.307-1.767l1.577-1.577a.953.953,0,0,0,0-1.348l-1.4-1.4a.955.955,0,0,0-1.348,0l-1.577,1.577a1.572,1.572,0,0,1-1.768.306c-.21-.1-.429-.188-.651-.27a1.564,1.564,0,0,1-1.023-1.462v-2.23a.954.954,0,0,0-.953-.953h-1.982a.954.954,0,0,0-.953.953v2.23a1.564,1.564,0,0,1-1.022,1.462c-.222.081-.44.172-.651.27a1.571,1.571,0,0,1-1.767-.306l-1.577-1.577a.955.955,0,0,0-1.348,0l-1.4,1.4a.952.952,0,0,0,0,1.348l1.577,1.577a1.572,1.572,0,0,1,.307,1.767c-.1.211-.188.43-.27.651a1.563,1.563,0,0,1-1.462,1.022h-2.23a.954.954,0,0,0-.953.953v1.982a.954.954,0,0,0,.953.953h2.23a1.564,1.564,0,0,1,1.463,1.023c.08.219.171.439.269.651a1.571,1.571,0,0,1-.307,1.767L160.5,341.4a.952.952,0,0,0,0,1.348l1.4,1.4a.976.976,0,0,0,1.348,0l1.577-1.577A1.559,1.559,0,0,1,165.925,342.124Zm4.281-.662a7.019,7.019,0,1,1,7.019-7.019A7.027,7.027,0,0,1,170.206,341.462Zm0-13.434a6.415,6.415,0,1,0,6.414,6.415A6.422,6.422,0,0,0,170.206,328.027Z" transform="translate(-156.859 -321.095)" fill="#fff"/>
                </g>
              </g>
            </g>
            <g id="Group_27" data-name="Group 27" transform="translate(0 16.878)">
              <g id="Group_22" data-name="Group 22" transform="translate(79.596 34.14)" opacity="0.81">
                <path id="Path_16" data-name="Path 16" d="M406.639,299.527H402.7a.3.3,0,0,1,0-.6h3.941a.3.3,0,0,1,0,.6Z" transform="translate(-384.642 -290.906)" fill="#fff"/>
                <path id="Path_17" data-name="Path 17" d="M406.639,321.009H402.7a.3.3,0,0,1,0-.6h3.941a.3.3,0,0,1,0,.6Z" transform="translate(-384.642 -305.894)" fill="#fff"/>
                <g id="Group_21" data-name="Group 21">
                  <g id="Group_20" data-name="Group 20">
                    <g id="Group_19" data-name="Group 19">
                      <path id="Path_18" data-name="Path 18" d="M368.454,294.082H344.492a.821.821,0,0,1-.82-.82V273.228a.821.821,0,0,1,.82-.82h23.962a.821.821,0,0,1,.82.82v20.034A.821.821,0,0,1,368.454,294.082Zm-23.962-21.069a.215.215,0,0,0-.215.215v20.034a.216.216,0,0,0,.215.215h23.962a.216.216,0,0,0,.215-.215V273.228a.215.215,0,0,0-.215-.215Z" transform="translate(-343.672 -272.408)" fill="#fff"/>
                      <path id="Path_19" data-name="Path 19" d="M368.454,294.082H344.492a.821.821,0,0,1-.82-.82V273.228a.821.821,0,0,1,.82-.82h23.962a.821.821,0,0,1,.82.82v20.034A.821.821,0,0,1,368.454,294.082Zm-23.962-21.069a.215.215,0,0,0-.215.215v20.034a.216.216,0,0,0,.215.215h23.962a.216.216,0,0,0,.215-.215V273.228a.215.215,0,0,0-.215-.215Z" transform="translate(-343.672 -272.408)" fill="#fff" opacity="0.66"/>
                    </g>
                  </g>
                  <path id="Path_20" data-name="Path 20" d="M372.392,289.1H353.611a.3.3,0,1,1,0-.6h18.781a.3.3,0,1,1,0,.6Z" transform="translate(-350.396 -283.632)" fill="#fff"/>
                  <path id="Path_21" data-name="Path 21" d="M372.392,309.952H353.611a.3.3,0,1,1,0-.6h18.781a.3.3,0,0,1,0,.6Z" transform="translate(-350.396 -298.18)" fill="#fff"/>
                  <path id="Path_22" data-name="Path 22" d="M363.737,299.527H353.611a.3.3,0,1,1,0-.6h10.125a.3.3,0,1,1,0,.6Z" transform="translate(-350.396 -290.906)" fill="#fff"/>
                  <path id="Path_23" data-name="Path 23" d="M363.737,321.009H353.611a.3.3,0,0,1,0-.6h10.125a.3.3,0,0,1,0,.6Z" transform="translate(-350.396 -305.894)" fill="#fff"/>
                  <path id="Path_24" data-name="Path 24" d="M360.44,330.961h-6.828a.3.3,0,1,1,0-.6h6.828a.3.3,0,0,1,0,.6Z" transform="translate(-350.396 -312.838)" fill="#fff"/>
                </g>
              </g>
              <g id="Group_26" data-name="Group 26" opacity="0.81">
                <path id="Path_25" data-name="Path 25" d="M151.781,190.165h-4.472a.3.3,0,0,1,0-.6h4.472a.3.3,0,0,1,0,.6Z" transform="translate(-126.866 -180.466)" fill="#fff"/>
                <path id="Path_26" data-name="Path 26" d="M151.781,214.538h-4.472a.3.3,0,0,1,0-.6h4.472a.3.3,0,0,1,0,.6Z" transform="translate(-126.866 -197.471)" fill="#fff"/>
                <g id="Group_25" data-name="Group 25">
                  <g id="Group_24" data-name="Group 24">
                    <g id="Group_23" data-name="Group 23">
                      <path id="Path_27" data-name="Path 27" d="M108.529,183.987H81.2a.82.82,0,0,1-.82-.82V160.3a.82.82,0,0,1,.82-.82h27.326a.82.82,0,0,1,.82.82v22.869A.82.82,0,0,1,108.529,183.987ZM81.2,160.084a.215.215,0,0,0-.215.215v22.869a.215.215,0,0,0,.215.215h27.326a.215.215,0,0,0,.215-.215V160.3a.215.215,0,0,0-.215-.215Z" transform="translate(-80.384 -159.479)" fill="#fff"/>
                      <path id="Path_28" data-name="Path 28" d="M108.529,183.987H81.2a.82.82,0,0,1-.82-.82V160.3a.82.82,0,0,1,.82-.82h27.326a.82.82,0,0,1,.82.82v22.869A.82.82,0,0,1,108.529,183.987ZM81.2,160.084a.215.215,0,0,0-.215.215v22.869a.215.215,0,0,0,.215.215h27.326a.215.215,0,0,0,.215-.215V160.3a.215.215,0,0,0-.215-.215Z" transform="translate(-80.384 -159.479)" fill="#fff" opacity="0.66"/>
                    </g>
                  </g>
                  <path id="Path_29" data-name="Path 29" d="M112.927,178.336H91.619a.3.3,0,0,1,0-.6h21.307a.3.3,0,0,1,0,.6Z" transform="translate(-88.012 -172.213)" fill="#fff"/>
                  <path id="Path_30" data-name="Path 30" d="M112.927,201.993H91.619a.3.3,0,1,1,0-.6h21.307a.3.3,0,0,1,0,.6Z" transform="translate(-88.012 -188.718)" fill="#fff"/>
                  <path id="Path_31" data-name="Path 31" d="M103.107,190.165H91.619a.3.3,0,1,1,0-.6h11.488a.3.3,0,1,1,0,.6Z" transform="translate(-88.012 -180.466)" fill="#fff"/>
                  <path id="Path_32" data-name="Path 32" d="M103.107,214.538H91.619a.3.3,0,0,1,0-.6h11.488a.3.3,0,1,1,0,.6Z" transform="translate(-88.012 -197.471)" fill="#fff"/>
                  <path id="Path_33" data-name="Path 33" d="M99.366,225.829H91.619a.3.3,0,1,1,0-.6h7.747a.3.3,0,1,1,0,.6Z" transform="translate(-88.012 -205.348)" fill="#fff"/>
                </g>
              </g>
            </g>
          </g>
          <g id="Group_34" data-name="Group 34" transform="translate(0 34.557)">
            <g id="Group_30" data-name="Group 30" transform="translate(70.505 0)">
              <g id="Group_29" data-name="Group 29">
                <path id="Path_34" data-name="Path 34" d="M336.386,158.019H322.8a1.457,1.457,0,0,0-1.348,1.106l-.45,1.493a1.458,1.458,0,0,1-1.348,1.106H300.2a1.549,1.549,0,0,0-1.427,1.647h0V185.4a1.549,1.549,0,0,0,1.427,1.647h36.187a1.589,1.589,0,0,0,1.524-1.647V159.666A1.589,1.589,0,0,0,336.386,158.019Z" transform="translate(-298.772 -158.019)" fill="#3e479b"/>
                <path id="Path_35" data-name="Path 35" d="M322.5,165.044l.481-1.493a1.537,1.537,0,0,1,1.439-1.106h11.963a1.589,1.589,0,0,1,1.524,1.647v25.73a1.589,1.589,0,0,1-1.524,1.647H300.3a1.589,1.589,0,0,1-1.524-1.647V167.8a1.589,1.589,0,0,1,1.524-1.647h20.769A1.537,1.537,0,0,0,322.5,165.044Z" transform="translate(-298.772 -161.107)" fill="#6d6cd4"/>
                <path id="Path_36" data-name="Path 36" d="M328.577,170.409,329.03,169a1.449,1.449,0,0,1,1.357-1.042h11.275a1.5,1.5,0,0,1,1.436,1.552v24.252a1.5,1.5,0,0,1-1.436,1.552H307.644a1.5,1.5,0,0,1-1.436-1.552V173a1.5,1.5,0,0,1,1.436-1.552H327.22A1.449,1.449,0,0,0,328.577,170.409Z" transform="translate(-303.96 -164.954)" fill="#fff" opacity="0.12"/>
              </g>
              <path id="Path_37" data-name="Path 37" d="M393.295,231.46h-8.927a.3.3,0,1,1,0-.6h8.927a1.046,1.046,0,0,0,1.045-1.045v-7.082a.3.3,0,1,1,.6,0v7.082A1.651,1.651,0,0,1,393.295,231.46Z" transform="translate(-358.28 -202.955)" fill="#fff"/>
            </g>
            <g id="Group_33" data-name="Group 33" transform="translate(0 25.049)">
              <g id="Group_32" data-name="Group 32">
                <g id="Group_31" data-name="Group 31">
                  <path id="Path_38" data-name="Path 38" d="M67.089,240.875H80.765a1.514,1.514,0,0,1,1.356,1.244l.453,1.68a1.514,1.514,0,0,0,1.357,1.244h19.578a1.685,1.685,0,0,1,1.436,1.853h0v24.775a1.685,1.685,0,0,1-1.436,1.853H67.089a1.716,1.716,0,0,1-1.534-1.853V242.728A1.716,1.716,0,0,1,67.089,240.875Z" transform="translate(-65.555 -240.875)" fill="#f28393"/>
                  <path id="Path_39" data-name="Path 39" d="M81.061,248.778l-.484-1.68a1.584,1.584,0,0,0-1.449-1.244H67.089a1.716,1.716,0,0,0-1.534,1.853V276.65a1.716,1.716,0,0,0,1.534,1.853h36.323a1.716,1.716,0,0,0,1.534-1.853V251.875a1.716,1.716,0,0,0-1.534-1.853h-20.9A1.584,1.584,0,0,1,81.061,248.778Z" transform="translate(-65.555 -244.349)" fill="#fff" opacity="0.12"/>
                  <path id="Path_40" data-name="Path 40" d="M80.17,254.813l-.456-1.584a1.493,1.493,0,0,0-1.366-1.172H67a1.617,1.617,0,0,0-1.445,1.746v27.281A1.617,1.617,0,0,0,67,282.83h34.237a1.617,1.617,0,0,0,1.445-1.746V257.732a1.618,1.618,0,0,0-1.445-1.747h-19.7A1.493,1.493,0,0,1,80.17,254.813Z" transform="translate(-65.555 -248.677)" fill="#fff" opacity="0.12"/>
                </g>
              </g>
              <path id="Path_41" data-name="Path 41" d="M74.174,263.292a.288.288,0,0,1-.271-.3v-4.2a.982.982,0,0,1,.922-1.031h5.636a.3.3,0,0,1,0,.6H74.825a.406.406,0,0,0-.381.426v4.2A.288.288,0,0,1,74.174,263.292Z" transform="translate(-71.379 -252.658)" fill="#fff"/>
            </g>
          </g>
          <g id="Group_49" data-name="Group 49" transform="translate(18.549 0)">
            <g id="Group_42" data-name="Group 42" transform="translate(6.929 0)">
              <g id="Group_36" data-name="Group 36" transform="translate(0 8.601)">
                <g id="Group_35" data-name="Group 35">
                  <rect id="Rectangle_2" data-name="Rectangle 2" width="62.213" height="23.363" rx="11.682" transform="translate(0 14.642)" fill="#c5d9ff"/>
                  <circle id="Ellipse_9" data-name="Ellipse 9" cx="16.429" cy="16.429" r="16.429" transform="translate(14.678)" fill="#599af2"/>
                </g>
              </g>
              <g id="Group_37" data-name="Group 37">
                <rect id="Rectangle_3" data-name="Rectangle 3" width="62.213" height="23.363" rx="11.682" transform="translate(0 19.802)" fill="#599af2"/>
                <circle id="Ellipse_10" data-name="Ellipse 10" cx="16.429" cy="16.429" r="16.429" transform="translate(9.518 13.001) rotate(-23.309)" fill="#599af2"/>
              </g>
              <g id="Group_39" data-name="Group 39" opacity="0.35">
                <g id="Group_38" data-name="Group 38">
                  <rect id="Rectangle_4" data-name="Rectangle 4" width="62.213" height="23.363" rx="11.682" transform="translate(0 19.802)" fill="#ecf1f7"/>
                  <circle id="Ellipse_11" data-name="Ellipse 11" cx="16.429" cy="16.429" r="16.429" transform="translate(9.518 13.001) rotate(-23.309)" fill="#ecf1f7"/>
                </g>
              </g>
              <g id="Group_41" data-name="Group 41" transform="translate(21.978 18.405)">
                <g id="Group_40" data-name="Group 40" transform="translate(4.531)">
                  <path id="Path_42" data-name="Path 42" d="M238.275,110.218a.756.756,0,0,1-.53-1.295l4.409-4.334,4.339,4.339A.756.756,0,0,1,245.425,110l-3.279-3.279L238.805,110A.753.753,0,0,1,238.275,110.218Z" transform="translate(-237.52 -104.589)" fill="#fff"/>
                  <path id="Path_43" data-name="Path 43" d="M250.983,116.941a.756.756,0,0,1-.756-.756v-9.82a.756.756,0,1,1,1.512,0v9.82A.756.756,0,0,1,250.983,116.941Z" transform="translate(-246.385 -105.301)" fill="#fff"/>
                </g>
                <path id="Path_44" data-name="Path 44" d="M238.8,140.379H224.4a1.874,1.874,0,0,1-1.872-1.872v-5.232a.756.756,0,0,1,1.512,0v5.232a.361.361,0,0,0,.361.361h14.4a.474.474,0,0,0,.474-.473v-5.119a.756.756,0,0,1,1.512,0v5.119A1.987,1.987,0,0,1,238.8,140.379Z" transform="translate(-222.531 -124.075)" fill="#fff"/>
              </g>
            </g>
            <g id="Group_44" data-name="Group 44" transform="translate(0 37.726)">
              <path id="Path_45" data-name="Path 45" d="M195.958,220.174l-41.213,13.617a1.922,1.922,0,0,1-2.428-1.222L138.7,191.356a1.922,1.922,0,0,1,1.222-2.428l41.213-13.617a1.922,1.922,0,0,1,2.428,1.222l13.617,41.213A1.922,1.922,0,0,1,195.958,220.174Z" transform="translate(-135.069 -173.184)" fill="#4c65ba" opacity="0.36"/>
              <rect id="Rectangle_5" data-name="Rectangle 5" width="47.248" height="47.248" rx="6.357" transform="translate(0 14.822) rotate(-18.283)" fill="#fff"/>
              <g id="Group_43" data-name="Group 43" transform="translate(5.057 5.091)">
                <rect id="Rectangle_6" data-name="Rectangle 6" width="39.2" height="39.2" transform="translate(0 12.298) rotate(-18.283)" fill="#c5d9ff"/>
                <path id="Path_46" data-name="Path 46" d="M176.847,278.809l-2.784-8.427,4.073-9.816a2.818,2.818,0,0,1,3.454-1.619l7.539,2.341a1.006,1.006,0,0,0,1.165-.444l6.276-10.446a5.215,5.215,0,0,1,6.509-2.1l6.912,2.974.064.194,4.876,14.758-.43.142Zm-1.817-8.391,2.394,7.246,36.36-12.014-4.527-13.7-6.538-2.813a4.3,4.3,0,0,0-5.373,1.732l-6.276,10.446a1.911,1.911,0,0,1-2.211.843l-7.538-2.341a1.915,1.915,0,0,0-2.347,1.1Z" transform="translate(-164.866 -228.975)" fill="#fff" opacity="0.47"/>
                <path id="Path_47" data-name="Path 47" d="M213.237,231.908a4.826,4.826,0,1,1,1.51-.244A4.833,4.833,0,0,1,213.237,231.908Zm-.006-8.742a3.917,3.917,0,1,0,3.722,2.689A3.894,3.894,0,0,0,213.231,223.166Z" transform="translate(-188.829 -211.098)" fill="#fff" opacity="0.47"/>
              </g>
            </g>
            <g id="Group_46" data-name="Group 46" transform="translate(39.305 54.29)">
              <rect id="Rectangle_7" data-name="Rectangle 7" width="31.072" height="36.018" rx="6.357" transform="translate(1.828 1.828)" fill="#4c65ba" opacity="0.36"/>
              <rect id="Rectangle_8" data-name="Rectangle 8" width="31.072" height="36.018" rx="6.357" fill="#fff"/>
              <g id="Group_37678" data-name="Group 37678" transform="translate(2134.446 12451.785)" opacity="0.281">
                <rect id="Rectangle_18830" data-name="Rectangle 18830" width="26" height="26" transform="translate(-2132 -12449)" fill="none"/>
                <g id="Group_37675" data-name="Group 37675" transform="translate(-2129.92 -12447.96)">
                  <g id="Group_37674" data-name="Group 37674" transform="translate(0 0)">
                    <g id="Group_37672" data-name="Group 37672" transform="translate(0.353 0.353)">
                      <path id="Path_56826" data-name="Path 56826" d="M34.188,267.033h-.754a1.886,1.886,0,0,1-1.886-1.886,1.131,1.131,0,0,1,1.132-1.132h1.509Z" transform="translate(-31.548 -251.946)" fill="#ebfeb9"/>
                      <path id="Path_56827" data-name="Path 56827" d="M98.283,11.052l-3.33-3.33A.754.754,0,0,0,94.42,7.5H80.4a.754.754,0,0,0-.754.754v11.9L80.4,30.886H97.75a.754.754,0,0,0,.754-.754V11.585A.754.754,0,0,0,98.283,11.052Z" transform="translate(-77.382 -7.501)" fill="#ebffb9"/>
                      <path id="Path_56828" data-name="Path 56828" d="M192.53,141.416h-8.3a.377.377,0,0,1-.377-.377v-4.9a.377.377,0,0,1,.377-.377h8.3a.377.377,0,0,1,.377.377v4.9A.377.377,0,0,1,192.53,141.416Z" transform="translate(-176.688 -129.723)" fill="#8ce1a4"/>
                      <path id="Path_56829" data-name="Path 56829" d="M80.778,29V7.5H80.4a.754.754,0,0,0-.754.754V30.131a.754.754,0,0,0,.754.754h17.35a.754.754,0,0,0,.754-.754v-.377H81.532A.755.755,0,0,1,80.778,29Z" transform="translate(-77.383 -7.5)" fill="#cdfaa0"/>
                      <path id="Path_56830" data-name="Path 56830" d="M396.424,11.585a.754.754,0,0,0-.221-.533l-3.33-3.33a.754.754,0,0,0-.533-.221h-.065v3.772a.377.377,0,0,0,.377.377h3.772Z" transform="translate(-375.302 -7.501)" fill="#ebfeb9"/>
                      <g id="Group_37670" data-name="Group 37670" transform="translate(0 13.201)">
                        <path id="Path_56831" data-name="Path 56831" d="M44.373,289.2H32.681a1.132,1.132,0,0,1-1.132-1.132v6.789a1.132,1.132,0,0,0,1.132,1.132H44.373a.754.754,0,0,0,.754-.754v-5.281A.754.754,0,0,0,44.373,289.2Z" transform="translate(-31.549 -288.065)" fill="#8ce1a4"/>
                      </g>
                      <g id="Group_37671" data-name="Group 37671" transform="translate(0 6.035)">
                        <path id="Path_56832" data-name="Path 56832" d="M32.681,295.986H44.373a.754.754,0,0,0,.754-.754v-.377H33.435a.755.755,0,0,1-.754-.754v-4.9a1.132,1.132,0,0,1-1.132-1.132v6.789A1.132,1.132,0,0,0,32.681,295.986Z" transform="translate(-31.549 -280.898)" fill="#ebfeb9"/>
                        <path id="Path_56833" data-name="Path 56833" d="M185.741,140.285a.754.754,0,0,1-.754-.754v-3.772h-.754a.377.377,0,0,0-.377.377v4.9a.377.377,0,0,0,.377.377h8.3a.377.377,0,0,0,.377-.377v-.754h-7.167Z" transform="translate(-176.688 -135.759)" fill="#78c2a4"/>
                      </g>
                    </g>
                    <g id="Group_37673" data-name="Group 37673" transform="translate(0)">
                      <path id="Path_56834" data-name="Path 56834" d="M45.553,3.654,42.223.324A1.1,1.1,0,0,0,41.44,0H27.419a1.109,1.109,0,0,0-1.107,1.107V12.07h-.779a1.486,1.486,0,0,0-1.484,1.484v6.789a1.486,1.486,0,0,0,1.484,1.484H37.226a1.109,1.109,0,0,0,1.107-1.107V15.44a1.109,1.109,0,0,0-1.107-1.107H25.533a.779.779,0,0,1,0-1.557h.779v.4a.353.353,0,1,0,.706,0V1.107a.4.4,0,0,1,.4-.4h13.6V4.125a.731.731,0,0,0,.73.73h3.419V22.984a.4.4,0,0,1-.4.4H27.419a.4.4,0,0,1-.4-.4.353.353,0,1,0-.706,0,1.109,1.109,0,0,0,1.107,1.107H44.77a1.109,1.109,0,0,0,1.107-1.107V4.437A1.1,1.1,0,0,0,45.553,3.654ZM25.533,15.039H37.226a.4.4,0,0,1,.4.4v5.281a.4.4,0,0,1-.4.4H25.533a.78.78,0,0,1-.779-.779V14.818A1.475,1.475,0,0,0,25.533,15.039ZM41.728,4.125V.828l3.321,3.321h-3.3A.024.024,0,0,1,41.728,4.125Z" transform="translate(-24.049 0)" fill="#34bfa3"/>
                      <path id="Path_56835" data-name="Path 56835" d="M161.9,347.771a2.869,2.869,0,0,0,.383.008l.746,0a.353.353,0,0,0,0-.706l-.713,0v-2.7a.353.353,0,0,0-.706,0v3.046A.353.353,0,0,0,161.9,347.771Z" transform="translate(-155.132 -327.837)"/>
                      <path id="Path_56836" data-name="Path 56836" d="M215.268,347.78a1.229,1.229,0,0,0,1.255-.952,1.121,1.121,0,0,0-.868-1.233c-.379-.14-.732-.292-.835-.338a.239.239,0,0,1-.088-.227.333.333,0,0,1,.262-.267,1.044,1.044,0,0,1,.865.2.353.353,0,0,0,.452-.542,1.747,1.747,0,0,0-1.521-.333,1.045,1.045,0,0,0-.757.843.941.941,0,0,0,.42.932.355.355,0,0,0,.049.027c.018.008.437.194.909.368.14.052.462.2.418.447a.543.543,0,0,1-.56.37,1.09,1.09,0,0,1-.8-.336.353.353,0,1,0-.523.474A1.806,1.806,0,0,0,215.268,347.78Z" transform="translate(-204.921 -327.837)"/>
                      <path id="Path_56837" data-name="Path 56837" d="M80.148,347.715a.353.353,0,0,0,.492-.085l.861-1.223.86,1.223a.353.353,0,1,0,.577-.406l-1.006-1.429.855-1.213a.353.353,0,1,0-.577-.406l-.709,1.006-.708-1.006a.353.353,0,1,0-.577.406l.853,1.213-1.007,1.43A.353.353,0,0,0,80.148,347.715Z" transform="translate(-77.366 -327.837)"/>
                      <path id="Path_56838" data-name="Path 56838" d="M186.113,128.987a.731.731,0,0,0-.73-.73h-8.3a.731.731,0,0,0-.73.73v4.9a.731.731,0,0,0,.73.73h8.3a.731.731,0,0,0,.73-.73v-4.9Zm-6.035,3.042v-1.18h2.312v1.18Zm2.312.706v1.18h-2.312v-1.18Zm-5.329-1.886h2.312v1.18h-2.312Zm3.017-.706v-1.18h2.312v1.18Zm3.017.706h2.312v1.18H183.1Zm2.312-1.862v1.156H183.1v-1.18h2.287A.024.024,0,0,1,185.407,128.987Zm-8.322-.024h2.287v1.18h-2.312v-1.156A.024.024,0,0,1,177.085,128.963Zm-.024,4.928v-1.156h2.312v1.18h-2.287A.024.024,0,0,1,177.061,133.891Zm8.322.024H183.1v-1.18h2.312v1.156A.024.024,0,0,1,185.383,133.915Z" transform="translate(-169.189 -122.222)"/>
                    </g>
                  </g>
                </g>
              </g>
            </g>
          </g>
        </g>
      </g>
      <g id="Group_19883" data-name="Group 19883" transform="translate(553.192 260.024)">
        <rect id="Rectangle_10" data-name="Rectangle 10" width="23.267" height="23.267" rx="6.357" transform="translate(1.52 8.855) rotate(-20.54)" fill="#4c65ba" opacity="0.36"/>
        <rect id="Rectangle_11" data-name="Rectangle 11" width="23.267" height="23.267" rx="6.357" transform="translate(0 8.164) rotate(-20.54)" fill="#fff"/>
        <g id="Group_47" data-name="Group 47" transform="translate(4.04 4.264)">
          <path id="Path_12865" data-name="Path 12865" d="M0,0,17.42.151l.151,17.059L.151,17.059Z" transform="matrix(0.936, -0.351, 0.351, 0.936, 0, 6.165)" fill="#e7efff"/>
          <path id="Path_50" data-name="Path 50" d="M221.249,336.842l-1.59-4.388,1.783-4.989a1.553,1.553,0,0,1,1.88-1.006l3.631,1.006a.254.254,0,0,0,.293-.129l2.791-5.262a2.669,2.669,0,0,1,3.334-1.262l3.438,1.367,2.744,7.574Zm-.654-4.391,1.168,3.223,16.661-6.455-2.3-6.342-3.07-1.22a1.8,1.8,0,0,0-2.249.852l-2.791,5.262a1.118,1.118,0,0,1-1.289.57l-3.632-1.006a.684.684,0,0,0-.83.444Z" transform="translate(-216.495 -314.31)" fill="#fff" opacity="0.47"/>
          <path id="Path_51" data-name="Path 51" d="M237.582,313.984a2.606,2.606,0,1,1,2.437-3.52h0a2.606,2.606,0,0,1-2.437,3.52Zm0-4.3a1.7,1.7,0,1,0,1.593,1.1A1.694,1.694,0,0,0,237.577,309.679Z" transform="translate(-229.575 -303.878)" fill="#fff" opacity="0.47"/>
        </g>
      </g>
    </g>
  </g>
</svg>
