<?xml version="1.0" encoding="utf-8"?>
<!-- Generator: Adobe Illustrator 26.0.0, SVG Export Plug-In . SVG Version: 6.00 Build 0)  -->
<svg version="1.1" id="Group_16855" xmlns="http://www.w3.org/2000/svg" xmlns:xlink="http://www.w3.org/1999/xlink" x="0px"
	 y="0px" viewBox="0 0 128 128" style="enable-background:new 0 0 128 128;" xml:space="preserve">
<path id="Path_5" d="M88,90.5c-5.2,0-10.5-0.1-15.8,0c-1.1,0-1.9-0.9-2-2c0.1-3.2,0.7-2,3.9-2c9.3,0,18.2,0,27.6,0
	c10.3-0.6,18.3-9.4,17.7-19.7c-0.1-7.3-4.9-13.6-11.8-15.8c-1-0.2-1.7-1-2-2C104.3,39,94.8,31.9,84.6,33.3c-0.2,0-0.4,0.1-0.5,0.1
	c-3.4,0.5-7.1-0.1-9.8,2c-0.8,0.6-1.6,0.8-2,0C68,25.2,57.7,18.9,46.7,19.6C33.5,20,22.5,30.1,21.1,43.3c-0.3,2-0.3,4,0,5.9
	c0.2,0.9,0.8,1.7,0,2c-7.9,2.4-13.4,9.5-13.8,17.7c0,9.8,7.9,17.7,17.7,17.7c10,0.1,19.6,0.1,29.5,0c1-0.1,1.8,0.5,2,1.5
	c0,0.2,0,0.3,0,0.5c-0.1,2.9,0.9,2-2,2H27C14.4,91,3.8,81.2,3.4,68.6c0-0.6,0-1.1,0-1.7c0.2-7.7,4.8-14.6,11.8-17.7c0.8-0.4,2-1,2-2
	c-0.7-15.5,10.3-29,25.6-31.5c12.3-2.1,24.7,3.3,31.5,13.8c0.8,1.2,0.7,0.5,2,0c13.4-4.7,28.1,2.3,32.9,15.7c0.2,0.7,0.4,1.3,0.6,2
	c0.2,0.9,1.1-0.4,2,0c8.5,4.7,13.2,14.1,11.8,23.6c-0.8,9.8-8.1,17.8-17.7,19.7c-2,0.2-3.9,0.2-5.9,0C95.9,90.5,92,90.5,88,90.5z"/>
<path id="Path_6" d="M62.4,63c-4.7,4.7-9.5,9.4-13.8,13.8c-0.9,0.9-1.1,1-2,0c-2.2-2.4-2.3-1.7,0-3.9c5.6-5.6,10.1-12,15.8-17.7
	c0.7-0.7,1.1-0.8,2,0c6.1,6.2,13.5,13.6,19.7,19.7c0.7,0.7,0.8-0.6,0,0c-0.9,0.7-2.9,3.9-3.9,3.9c-1,0-1.2-3.1-2-3.9
	c-3.6-3.6-6.3-6.3-9.8-9.8l-2-2c-0.4,0.5,0,1.5,0,2c0,15.3-0.1,32,0,47.3c0,1.3-0.7,0.1-2,0c-2.9-0.1-2,0.9-2-2V64.9
	C62.4,64.5,62.4,63.9,62.4,63z"/>
</svg>
